<svg width="24" height="25" viewBox="0 0 24 25" fill="none" xmlns="http://www.w3.org/2000/svg">
<path d="M6.46296 12.5C6.46296 14.1554 5.12822 15.5 3.48148 15.5C1.83475 15.5 0.5 14.1554 0.5 12.5C0.5 10.8446 1.83475 9.5 3.48148 9.5C5.12822 9.5 6.46296 10.8446 6.46296 12.5ZM14.9815 12.5C14.9815 14.1554 13.6451 15.5 12 15.5C10.3549 15.5 9.01852 14.1554 9.01852 12.5C9.01852 10.8446 10.3549 9.5 12 9.5C13.6451 9.5 14.9815 10.8446 14.9815 12.5ZM17.537 12.5C17.537 10.8446 18.8734 9.5 20.5185 9.5C22.1637 9.5 23.5 10.8446 23.5 12.5C23.5 14.1554 22.1637 15.5 20.5185 15.5C18.8734 15.5 17.537 14.1554 17.537 12.5Z" fill="currentColor"/>
</svg>
